# xmcd
# Track frame offsets:
# 150
# 14677
# 24640
# 44700
# 56989
# 68240
# 80050
# 97447
# 109325
# 125382
# 148872
# 176142
# 192950
# 207520
# 225305
# 245857
# 258122
#
# Disc length: 3782 seconds
# Revision: 2
# Processed by: cddbd v1.5.1PL0 Copyright (c) Steve Scherf et al.
# Submitted via: VisiTrax 2.9.10.220 - For more info visit www.synapsa.com
#
DISCID=100ec411
DTITLE=Glenn Campbell - Greatest Hits - Live
DYEAR=1996
DGENRE=
TTITLE0=Rhinestone Cowboy
TTITLE1=Gentle On My Mind
TTITLE2=Medley
TTITLE3=By the Time I Get to Phoenix
TTITLE4=Dreams of the Everyday Housewife
TTITLE5=Heartache Number 3
TTITLE6=Please Come to Boston
TTITLE7=It's Only Make Believe
TTITLE8=Crying
TTITLE9=Bluegrass Medley
TTITLE10=Milk Cow Blues
TTITLE11=Rollin' (In My Sweet Baby's Arms)
TTITLE12=I'm So Lonesome I Could Cry
TTITLE13=Southern Lights
TTITLE14=Amazing Grace
TTITLE15=Try a Little Kindness
TTITLE16=Mull of Kintyre
EXTD=K-Tel Entertainment (UK) Limited\nECD 3253
EXTT0=
EXTT1=
EXTT2=Wichita Linesman\nGalveston\nCountry Boy (You Got Your Feet in LA)
EXTT3=
EXTT4=
EXTT5=
EXTT6=
EXTT7=
EXTT8=
EXTT9=Rocky Top\nOrange Blossom Special
EXTT10=
EXTT11=
EXTT12=
EXTT13=
EXTT14=
EXTT15=
EXTT16=
PLAYORDER=
